<svg width="26" height="26" viewBox="0 0 26 26" fill="none" xmlns="http://www.w3.org/2000/svg">
<path fill-rule="evenodd" clip-rule="evenodd" d="M13 26C20.1797 26 26 20.1797 26 13C26 5.8203 20.1797 0 13 0C5.8203 0 0 5.8203 0 13C0 20.1797 5.8203 26 13 26ZM11.4355 8.88163L15.1616 13L11.4355 17.1184C11.2116 17.3658 11.2116 17.767 11.4355 18.0144C11.6594 18.2619 12.0223 18.2619 12.2462 18.0144L16.2997 13.5342C16.4315 13.3885 16.4857 13.1895 16.4623 13C16.4857 12.8105 16.4315 12.6115 16.2997 12.4658L12.2462 7.98558C12.0223 7.73815 11.6594 7.73815 11.4355 7.98558C11.2116 8.23302 11.2116 8.63419 11.4355 8.88163Z" fill="#BFD4E5"/>
</svg>
