<svg width="26" height="26" viewBox="0 0 26 26" fill="none" xmlns="http://www.w3.org/2000/svg">
<path fill-rule="evenodd" clip-rule="evenodd" d="M13 26C5.8203 26 0 20.1797 0 13C0 5.8203 5.8203 0 13 0C20.1797 0 26 5.8203 26 13C26 20.1797 20.1797 26 13 26ZM14.5645 8.88163L10.8384 13L14.5645 17.1184C14.7884 17.3658 14.7884 17.767 14.5645 18.0144C14.3406 18.2619 13.9777 18.2619 13.7538 18.0144L9.70027 13.5342C9.56846 13.3885 9.51426 13.1895 9.53767 13C9.51426 12.8105 9.56846 12.6115 9.70027 12.4658L13.7538 7.98558C13.9777 7.73815 14.3406 7.73815 14.5645 7.98558C14.7884 8.23302 14.7884 8.63419 14.5645 8.88163Z" fill="#BFD4E5"/>
</svg>
