<svg width="35" height="35" viewBox="0 0 35 35" fill="none" xmlns="http://www.w3.org/2000/svg">
<path d="M9.1936 18.7914H10.5811V26.301H11.8937V18.7914H13.307V17.5615H9.1936V18.7914Z" fill="#006FDE"/>
<path d="M20.2919 19.7099C19.858 19.7099 19.453 19.9469 19.0724 20.4159V17.5615H17.8926V26.3013H19.0724V25.6704C19.4673 26.1577 19.8719 26.3912 20.2919 26.3912C20.7613 26.3912 21.0771 26.1441 21.2347 25.6593C21.3138 25.3833 21.3543 24.9497 21.3543 24.347V21.754C21.3543 21.1374 21.3138 20.707 21.2347 20.4453C21.0775 19.9569 20.761 19.7099 20.2919 19.7099ZM20.1738 24.4394C20.1738 25.0281 20.0012 25.3181 19.6603 25.3181C19.4666 25.3181 19.2693 25.2254 19.072 25.0277V21.059C19.2693 20.8639 19.4666 20.7715 19.6603 20.7715C20.0008 20.7715 20.1738 21.073 20.1738 21.6602V24.4394Z" fill="#006FDE"/>
<path d="M15.6917 24.7657C15.43 25.1356 15.1825 25.3178 14.9455 25.3178C14.788 25.3178 14.6981 25.2251 14.6694 25.0417C14.6587 25.0038 14.6587 24.8599 14.6587 24.5834V19.7891H13.4785V24.9376C13.4785 25.3977 13.5183 25.7084 13.5827 25.9061C13.7013 26.2362 13.9634 26.3909 14.3429 26.3909C14.7772 26.3909 15.2226 26.1288 15.6917 25.591V26.3014H16.8726V19.7891H15.6917V24.7657Z" fill="#006FDE"/>
<path d="M16.7041 13.7726C17.0883 13.7726 17.2727 13.4679 17.2727 12.8592V10.091C17.2727 9.48198 17.0883 9.17871 16.7041 9.17871C16.3195 9.17871 16.1348 9.48234 16.1348 10.091V12.8592C16.1348 13.4682 16.3195 13.7726 16.7041 13.7726Z" fill="#006FDE"/>
<path d="M17.5 0C7.83499 0 0 7.83499 0 17.5C0 27.165 7.83499 35 17.5 35C27.165 35 35 27.165 35 17.5C35 7.83499 27.165 0 17.5 0ZM19.4464 8.18517H20.6355V13.0304C20.6355 13.31 20.6355 13.455 20.6498 13.4941C20.676 13.6788 20.7698 13.7734 20.9295 13.7734C21.1679 13.7734 21.4182 13.5886 21.6828 13.2151V8.18517H22.8751V14.7659H21.6828V14.0483C21.208 14.5926 20.7554 14.8565 20.3204 14.8565C19.9366 14.8565 19.6716 14.7007 19.552 14.3677C19.4861 14.1683 19.4464 13.8536 19.4464 13.3892V8.18517ZM14.9428 10.331C14.9428 9.62742 15.0624 9.11325 15.3159 8.78061C15.6456 8.33054 16.11 8.10568 16.7044 8.10568C17.3016 8.10568 17.7657 8.33054 18.0954 8.78061C18.3454 9.11289 18.465 9.62742 18.465 10.331V12.6354C18.465 13.3351 18.3454 13.8539 18.0954 14.183C17.7657 14.632 17.3016 14.8565 16.7044 14.8565C16.11 14.8565 15.6456 14.632 15.3159 14.183C15.0624 13.8539 14.9428 13.3347 14.9428 12.6354V10.331ZM11.7539 5.93514L12.6927 9.40292L13.5947 5.93514H14.932L13.3412 11.1896V14.7662H12.0192V11.1896C11.8993 10.5559 11.6347 9.62742 11.2104 8.3957C10.9318 7.57611 10.6414 6.75402 10.3629 5.93514H11.7539ZM26.9208 26.8761C26.6816 27.9141 25.8327 28.6803 24.8104 28.7945C22.3889 29.0649 19.9394 29.0663 17.4989 29.0649C15.0595 29.0663 12.6086 29.0649 10.1878 28.7945C9.16552 28.6803 8.31621 27.9144 8.07775 26.8761C7.73724 25.3976 7.73724 23.7832 7.73724 22.2607C7.73724 20.7383 7.74153 19.1241 8.08169 17.6454C8.32051 16.607 9.1691 15.8408 10.1914 15.7269C12.6125 15.4566 15.0631 15.4551 17.5032 15.4566C19.9427 15.4551 22.3932 15.4566 24.8144 15.7269C25.8366 15.8411 26.6859 16.607 26.9255 17.6454C27.2649 19.1241 27.2628 20.7383 27.2628 22.2607C27.2628 23.7832 27.2613 25.3976 26.9208 26.8761Z" fill="#006FDE"/>
<path d="M24.0512 19.709C23.4475 19.709 22.9788 19.9306 22.6379 20.3764C22.3877 20.7058 22.2734 21.215 22.2734 21.9107V24.1918C22.2734 24.884 22.4013 25.3967 22.6526 25.7229C22.9931 26.1676 23.4633 26.39 24.0805 26.39C24.6968 26.39 25.1805 26.1569 25.507 25.6839C25.6503 25.4748 25.7434 25.2381 25.7827 24.9767C25.7938 24.8585 25.8078 24.5968 25.8078 24.2162V24.0447H24.6044C24.6044 24.5173 24.589 24.7798 24.5786 24.8439C24.5113 25.1593 24.3416 25.3169 24.0512 25.3169C23.6459 25.3169 23.4475 25.0161 23.4475 24.4138V23.2588H25.8078V21.91C25.8078 21.2143 25.69 20.7051 25.4426 20.3757C25.1128 19.931 24.6434 19.709 24.0512 19.709ZM24.6284 22.277H23.4482V21.6744C23.4482 21.0721 23.6462 20.771 24.0404 20.771C24.4307 20.771 24.6284 21.0725 24.6284 21.6744V22.277Z" fill="#006FDE"/>
</svg>
