<svg width="12" height="14" viewBox="0 0 12 14" fill="none" xmlns="http://www.w3.org/2000/svg">
<path d="M11.5212 3.55163C11.0776 2.53192 10.3421 1.65622 9.40174 1.02766C8.46123 0.399096 7.35484 0.0438241 6.21269 0.00381889C5.07068 -0.0363057 3.94067 0.240447 2.95568 0.801536C1.97069 1.36253 1.17188 2.18434 0.653176 3.17031C0.134474 4.1562 -0.0823542 5.26516 0.028067 6.36629C0.138617 7.46756 0.571858 8.51536 1.27682 9.38626L1.3186 9.43441L5.33287 13.7128C5.5039 13.8957 5.74686 14 6.00165 14C6.25635 14 6.49928 13.8957 6.67031 13.7128L10.6846 9.43441L10.7264 9.38626C11.3847 8.57108 11.8063 7.60037 11.9475 6.57478C12.0886 5.549 11.9442 4.50531 11.5292 3.55176L11.5212 3.55163ZM5.99901 8.09129C5.40281 8.09129 4.83103 7.86204 4.40942 7.45384C3.98781 7.04565 3.75105 6.49202 3.75105 5.91477C3.75105 5.33751 3.98783 4.7839 4.40942 4.37569C4.83101 3.96748 5.40281 3.73813 5.99901 3.73813C6.59522 3.73813 7.167 3.96749 7.58861 4.37569C8.01022 4.78388 8.24698 5.33751 8.24698 5.91477C8.24698 6.49202 8.0102 7.04563 7.58861 7.45384C7.16702 7.86206 6.59522 8.09129 5.99901 8.09129Z" fill="#006FDE"/>
</svg>
