<svg width="129" height="114" viewBox="0 0 129 114" fill="none" xmlns="http://www.w3.org/2000/svg">
<path d="M100.36 112.776C101.829 113.769 103.826 113.001 104.263 111.295L106.446 102.695C106.618 102.02 106.115 101.372 105.414 101.372H90.7286C89.842 101.372 89.3527 102.391 89.895 103.079C93.5863 107.762 97.6613 110.951 100.36 112.776Z" fill="#D1E4F5"/>
<path d="M4.62675 61.3911C8.37088 68.8529 11.8504 76.9629 10.6068 84.8746C10.5009 85.5759 11.0434 86.2109 11.7578 86.2109H16.9176C17.288 86.2109 17.632 86.0389 17.8437 85.7479C24.1015 77.2806 32.5688 74.6346 32.5688 74.6346C40.2158 72.3325 48.4582 70.2951 53.7503 70.2951C63.6199 70.2951 65.975 78.3918 66.5042 81.4878C66.6231 82.1758 67.2184 82.6785 67.9197 82.6785C68.5549 82.6785 69.1634 82.4139 69.5867 81.9376L74.1777 76.8572C74.6408 76.3545 75.4741 76.6059 75.5801 77.2674C76.9956 86.1449 83.9813 95.3002 85.3043 96.0145C85.4233 96.0806 85.5556 96.1071 85.6879 96.1071H106.208C106.631 96.1071 106.975 95.7896 107.015 95.3794C107.743 87.6001 119.676 76.3677 124.24 72.3193C125.365 71.327 126 69.9114 126 68.4164V58.6127C126 58.4804 125.974 58.3615 125.921 58.2423L114.278 34.9572C114.199 34.7853 114.053 34.653 113.881 34.5736C104.342 30.2209 104.858 19.3589 105.044 17.3876C105.057 17.1892 105.004 16.9775 104.885 16.8187L102.08 13.1672C101.815 12.8232 101.313 12.7438 100.955 13.0084L99.6722 13.9346C99.6722 8.29852 97.3306 3.46952 96.0207 1.19393C95.6767 0.598577 94.8034 0.664728 94.5521 1.29977L91.8795 8.20591C91.84 8.29852 91.8266 8.40436 91.8266 8.49697C91.8134 14.2256 90.8609 18.0756 89.8421 20.5496C88.9295 22.7723 86.2173 23.5926 84.206 22.2828C80.2502 19.7029 73.8336 15.5089 71.6374 14.0801C71.2273 13.8155 71.148 13.2598 71.4522 12.8761L77.6308 5.37466C78.0673 4.84545 77.6837 4.03841 76.9956 4.03841H57.759C57.5473 4.03841 57.3489 4.11779 57.2033 4.26333L50.8927 10.2169C50.5619 10.5344 50.5486 11.0636 50.8793 11.3811L52.5464 13.0614C47.1749 14.8474 43.5632 11.2224 42.2666 9.59507C41.9623 9.22463 41.4067 9.18494 41.0626 9.51569L27.2635 22.812C27.1445 22.9311 27.0518 23.0766 27.0254 23.2486C25.5701 31.6497 9.3896 37.3651 4.32246 38.9527C3.38312 39.2438 2.66869 40.0112 2.44378 40.9637L0.0755859 50.8334C-0.0699456 51.4552 -0.0037949 52.1036 0.260808 52.6724C1.55736 55.4375 3.10529 58.3614 4.62675 61.3911Z" fill="#D1E4F5"/>
<path d="M120.99 67.3127C120.451 66.0745 119.558 65.0111 118.416 64.2479C117.274 63.4846 115.931 63.0532 114.544 63.0046C113.157 62.9559 111.785 63.292 110.589 63.9733C109.393 64.6545 108.423 65.6524 107.793 66.8497C107.163 68.0468 106.9 69.3934 107.034 70.7305C107.168 72.0677 107.694 73.3401 108.55 74.3976L108.601 74.4561L113.476 79.6513C113.683 79.8733 113.978 80 114.288 80C114.597 80 114.892 79.8733 115.1 79.6513L119.974 74.4561L120.025 74.3976C120.824 73.4077 121.336 72.229 121.508 70.9837C121.679 69.7381 121.504 68.4707 121 67.3129L120.99 67.3127ZM114.285 72.8251C113.561 72.8251 112.866 72.5468 112.354 72.0511C111.842 71.5554 111.555 70.8832 111.555 70.1822C111.555 69.4813 111.842 68.809 112.354 68.3133C112.866 67.8176 113.561 67.5392 114.285 67.5392C115.008 67.5392 115.703 67.8177 116.215 68.3133C116.727 68.809 117.014 69.4813 117.014 70.1822C117.014 70.8832 116.727 71.5554 116.215 72.0511C115.703 72.5468 115.008 72.8251 114.285 72.8251Z" fill="#006FDE"/>
<path d="M103.167 82.059C102.66 80.8936 101.82 79.8928 100.745 79.1745C99.67 78.4561 98.4055 78.0501 97.1002 78.0044C95.7951 77.9585 94.5036 78.2748 93.3779 78.916C92.2522 79.5572 91.3393 80.4964 90.7465 81.6232C90.1537 82.7499 89.9059 84.0173 90.0321 85.2758C90.1584 86.5344 90.6536 87.7318 91.4592 88.7271L91.507 88.7822L96.0947 93.6718C96.2902 93.8808 96.5678 94 96.859 94C97.1501 94 97.4277 93.8808 97.6232 93.6718L102.211 88.7822L102.259 88.7271C103.011 87.7955 103.493 86.6861 103.654 85.514C103.816 84.3417 103.651 83.1489 103.176 82.0592L103.167 82.059ZM96.856 87.2472C96.1746 87.2472 95.5212 86.9852 95.0393 86.5187C94.5575 86.0522 94.2869 85.4195 94.2869 84.7597C94.2869 84.1 94.5575 83.4673 95.0393 83.0008C95.5212 82.5343 96.1746 82.2722 96.856 82.2722C97.5374 82.2722 98.1909 82.5343 98.6727 83.0008C99.1545 83.4673 99.4251 84.1 99.4251 84.7597C99.4251 85.4195 99.1545 86.0521 98.6727 86.5187C98.1909 86.9852 97.5374 87.2472 96.856 87.2472Z" fill="#006FDE"/>
<path d="M128.441 46.1436C127.924 44.9539 127.066 43.9323 125.969 43.1989C124.871 42.4656 123.581 42.0511 122.248 42.0045C120.916 41.9576 119.597 42.2805 118.448 42.9351C117.299 43.5896 116.367 44.5484 115.762 45.6987C115.157 46.8489 114.904 48.1427 115.033 49.4273C115.162 50.7122 115.667 51.9346 116.49 52.9506L116.538 53.0068L121.222 57.9983C121.421 58.2116 121.705 58.3333 122.002 58.3333C122.299 58.3333 122.582 58.2116 122.782 57.9983L127.465 53.0068L127.514 52.9506C128.282 51.9996 128.774 50.8671 128.939 49.6706C129.103 48.4738 128.935 47.2562 128.451 46.1437L128.441 46.1436ZM121.999 51.4398C121.303 51.4398 120.636 51.1724 120.144 50.6962C119.652 50.2199 119.376 49.574 119.376 48.9006C119.376 48.2271 119.652 47.5812 120.144 47.105C120.636 46.6287 121.303 46.3612 121.999 46.3612C122.694 46.3612 123.361 46.6287 123.853 47.105C124.345 47.5812 124.621 48.2271 124.621 48.9006C124.621 49.574 124.345 50.2199 123.853 50.6962C123.362 51.1724 122.694 51.4398 121.999 51.4398Z" fill="#006FDE"/>
</svg>
