<svg width="106" height="42" viewBox="0 0 106 42" fill="none" xmlns="http://www.w3.org/2000/svg">
<path d="M19.52 21.3406C20.353 22.0875 21.0111 23.0086 21.4477 24.0385C21.8842 25.0684 22.0885 26.1818 22.0459 27.2995V41.1918H15.7615V29.1377C15.7615 26.4461 13.9934 24.6988 11.4119 24.6988C9.70188 24.716 7.99384 24.8205 6.29449 25.0119V41.1716H0V20.0832C4.27383 19.4483 8.58662 19.1108 12.9072 19.0732C15.6705 19.0732 17.8428 19.8358 19.52 21.3608" fill="#01438A"/>
<path d="M45.784 21.9666C48.0017 24.0724 49.1383 26.8498 49.1383 30.2989C49.1383 33.748 48.0017 36.6214 45.784 38.7727C43.5663 40.9239 40.6211 41.9995 36.9535 41.9995C33.2859 41.9995 30.3408 40.9239 28.0776 38.7727C25.8144 36.6214 24.6777 33.7985 24.6777 30.2989C24.6777 26.7993 25.8144 24.0724 28.0321 21.9666C30.2498 19.8608 33.2859 18.7852 36.9535 18.7852C40.6211 18.7852 43.5663 19.8608 45.784 21.9666ZM36.9535 24.34C33.3769 24.34 30.9318 26.7135 30.9318 30.2989C30.9318 33.8844 33.3769 36.4396 36.9535 36.4396C40.5301 36.4396 42.9297 33.9147 42.9297 30.2989C42.9297 26.6832 40.5301 24.34 36.9535 24.34Z" fill="#01438A"/>
<path d="M57.9238 41.192L48.4568 19.7249H55.3424L61.2277 33.7989L67.0726 19.7249H73.9126L64.4911 41.192H57.9238Z" fill="#01438A"/>
<path d="M82.5093 19.7246H76.2148V41.1917H82.5093V19.7246Z" fill="#01438A"/>
<path d="M86.8595 35.0051C90.1633 36.2626 93.0933 36.8988 95.6444 36.8988C98.1956 36.8988 99.3575 36.3585 99.3575 35.2425C99.3575 34.2325 98.4078 33.7629 96.9579 33.4447C96.2292 33.2483 95.4884 33.0998 94.7402 33.0003L93.5631 32.7781C88.4457 31.8338 86.0865 29.9502 86.0865 26.3244C86.0865 21.84 89.7592 19.1535 95.599 19.1535C98.7079 19.124 101.796 19.6613 104.712 20.7392L103.308 25.4457C99.8223 24.4609 97.1953 23.9661 95.3818 23.9661C93.3914 23.9661 92.2598 24.6831 92.2598 25.8042C92.2598 26.8142 92.9822 27.1475 94.2502 27.5515C95.0231 27.7282 95.3818 27.7737 96.4679 28.0009L97.7409 28.2231C103.035 29.2987 105.258 30.8238 105.258 34.6314C105.258 39.4288 101.454 41.8477 95.4272 41.8477C92.0625 41.8445 88.7288 41.2054 85.6016 39.9641L86.8595 35.0051Z" fill="#01438A"/>
<path d="M64.8033 13.7957C63.8511 13.7955 62.9003 13.7229 61.9591 13.5786C59.5914 13.4586 57.2788 12.8213 55.1841 11.7115C53.0894 10.6017 51.2635 9.04641 49.8349 7.15512C46.5866 6.08454 45.8238 4.47867 45.748 4.29688C45.8996 4.66552 50.8503 16.4974 63.8081 14.9017C68.582 14.3159 72.093 14.3967 74.6744 14.8209C71.4367 14.0868 68.1228 13.7426 64.8033 13.7957Z" fill="#01438A"/>
<path d="M81.9797 18.321C81.9797 18.321 80.4035 12.8015 64.8037 12.7661C51.5428 12.7661 48.1834 0 48.1834 0C48.1834 0 49.507 5.60034 65.3594 5.55489C78.6253 5.49934 81.9797 18.321 81.9797 18.321Z" fill="#006FDE"/>
</svg>
