<svg width="24" height="24" viewBox="0 0 24 24" fill="none" xmlns="http://www.w3.org/2000/svg">
<path fill-rule="evenodd" clip-rule="evenodd" d="M12 24C18.6274 24 24 18.6274 24 12C24 5.37258 18.6274 0 12 0C5.37258 0 0 5.37258 0 12C0 18.6274 5.37258 24 12 24ZM10.9372 12.1303C11.0345 12.2656 11.1348 12.405 11.2356 12.549L11.2354 12.549C11.3363 12.693 11.433 12.835 11.5269 12.9727C12.3079 14.1186 12.8923 14.976 14.0407 14.4002L14.9608 14.014C15.2784 13.8802 15.5659 13.8623 15.7533 14.0534L17.7931 16.1334C17.9806 16.3245 17.7944 16.64 17.5593 16.8916L16.2122 18.3339C14.7582 19.352 10.9319 15.8007 9.50414 13.7614C8.07622 11.7224 6.04783 6.91196 7.50143 5.89405L9.31761 5.12154C9.63455 4.98665 9.99472 4.91962 10.1101 5.16114L11.3672 7.78912C11.4825 8.03064 11.3676 8.29466 11.1333 8.54739L10.4555 9.27959C9.52161 10.162 10.1275 11.0045 10.9372 12.1303Z" fill="#BFD4E5"/>
</svg>
