<svg width="35" height="35" viewBox="0 0 35 35" fill="none" xmlns="http://www.w3.org/2000/svg">
<path d="M17.5 0C7.83563 0 0 7.83563 0 17.5C0 27.1644 7.83563 35 17.5 35C27.1644 35 35 27.1644 35 17.5C35 7.83347 27.1644 0 17.5 0ZM22.0237 17.4978L19.1559 17.4999L19.1537 27.9999H15.2184V17.5H12.5934V13.8819L15.2184 13.8797L15.214 11.7491C15.214 8.79598 16.0146 7.00004 19.4906 7.00004H22.3868V10.6203H20.5756C19.2215 10.6203 19.1559 11.1256 19.1559 12.0684L19.1515 13.8797H22.4065L22.0237 17.4978Z" fill="#006FDE"/>
</svg>
